<svg xmlns="http://www.w3.org/2000/svg" version="1.1" xmlns:xlink="http://www.w3.org/1999/xlink" xmlns:svgjs="http://svgjs.com/svgjs" width="1620" height="365" preserveAspectRatio="none" viewBox="0 0 1620 365"><g mask="url(&quot;#SvgjsMask1026&quot;)" fill="none"><rect width="1620" height="365" x="0" y="0" fill="#0e2a47"></rect><path d="M-87.39 406.25L-87.39 406.25" stroke="#132e65" stroke-width="1.5"></path><path d="M-87.39 406.25L-45.1 516.04" stroke="#132e65" stroke-width="1.5"></path><path d="M-87.39 406.25L59.3 411.7" stroke="#132e65" stroke-width="1.5"></path><path d="M-87.39 406.25L62.65 552.58" stroke="#132e65" stroke-width="1.5"></path><path d="M-87.39 406.25L231.79 376.85" stroke="#132e65" stroke-width="1.5"></path><path d="M-45.1 516.04L-45.1 516.04" stroke="#132e65" stroke-width="1.5"></path><path d="M-45.1 516.04L62.65 552.58" stroke="#132e65" stroke-width="1.5"></path><path d="M-45.1 516.04L59.3 411.7" stroke="#132e65" stroke-width="1.5"></path><path d="M-45.1 516.04L239.71 511.99" stroke="#132e65" stroke-width="1.5"></path><path d="M59.3 411.7L59.3 411.7" stroke="#132e65" stroke-width="1.5"></path><path d="M59.3 411.7L62.65 552.58" stroke="#132e65" stroke-width="1.5"></path><path d="M62.65 552.58L62.65 552.58" stroke="#132e65" stroke-width="1.5"></path><path d="M62.65 552.58L239.71 511.99" stroke="#132e65" stroke-width="1.5"></path><path d="M231.79 376.85L231.79 376.85" stroke="#132e65" stroke-width="1.5"></path><path d="M231.79 376.85L239.71 511.99" stroke="#132e65" stroke-width="1.5"></path><path d="M231.79 376.85L366.62 391.58" stroke="#132e65" stroke-width="1.5"></path><path d="M239.71 511.99L239.71 511.99" stroke="#132e65" stroke-width="1.5"></path><path d="M239.71 511.99L371.74 526.74" stroke="#132e65" stroke-width="1.5"></path><path d="M239.71 511.99L366.62 391.58" stroke="#132e65" stroke-width="1.5"></path><path d="M239.71 511.99L59.3 411.7" stroke="#132e65" stroke-width="1.5"></path><path d="M369.92 215.45L369.92 215.45" stroke="#132e65" stroke-width="1.5"></path><path d="M369.92 215.45L504.9 210.64" stroke="#132e65" stroke-width="1.5"></path><path d="M369.92 215.45L366.62 391.58" stroke="#132e65" stroke-width="1.5"></path><path d="M369.92 215.45L521.27 338.93" stroke="#132e65" stroke-width="1.5"></path><path d="M369.92 215.45L231.79 376.85" stroke="#132e65" stroke-width="1.5"></path><path d="M366.62 391.58L366.62 391.58" stroke="#132e65" stroke-width="1.5"></path><path d="M366.62 391.58L371.74 526.74" stroke="#132e65" stroke-width="1.5"></path><path d="M366.62 391.58L521.27 338.93" stroke="#132e65" stroke-width="1.5"></path><path d="M371.74 526.74L371.74 526.74" stroke="#132e65" stroke-width="1.5"></path><path d="M371.74 526.74L544.43 500.83" stroke="#132e65" stroke-width="1.5"></path><path d="M504.9 210.64L504.9 210.64" stroke="#132e65" stroke-width="1.5"></path><path d="M504.9 210.64L521.27 338.93" stroke="#132e65" stroke-width="1.5"></path><path d="M504.9 210.64L648.37 194.14" stroke="#132e65" stroke-width="1.5"></path><path d="M521.27 338.93L521.27 338.93" stroke="#132e65" stroke-width="1.5"></path><path d="M544.43 500.83L544.43 500.83" stroke="#132e65" stroke-width="1.5"></path><path d="M544.43 500.83L653.02 530.88" stroke="#132e65" stroke-width="1.5"></path><path d="M544.43 500.83L521.27 338.93" stroke="#132e65" stroke-width="1.5"></path><path d="M648.37 194.14L648.37 194.14" stroke="#132e65" stroke-width="1.5"></path><path d="M648.37 194.14L790.53 238" stroke="#132e65" stroke-width="1.5"></path><path d="M648.37 194.14L704.74 342.97" stroke="#132e65" stroke-width="1.5"></path><path d="M704.74 342.97L704.74 342.97" stroke="#132e65" stroke-width="1.5"></path><path d="M704.74 342.97L796.02 383.25" stroke="#132e65" stroke-width="1.5"></path><path d="M704.74 342.97L790.53 238" stroke="#132e65" stroke-width="1.5"></path><path d="M653.02 530.88L653.02 530.88" stroke="#132e65" stroke-width="1.5"></path><path d="M653.02 530.88L795.17 546.25" stroke="#132e65" stroke-width="1.5"></path><path d="M653.02 530.88L704.74 342.97" stroke="#132e65" stroke-width="1.5"></path><path d="M790.53 238L790.53 238" stroke="#132e65" stroke-width="1.5"></path><path d="M790.53 238L796.02 383.25" stroke="#132e65" stroke-width="1.5"></path><path d="M796.02 383.25L796.02 383.25" stroke="#132e65" stroke-width="1.5"></path><path d="M796.02 383.25L795.17 546.25" stroke="#132e65" stroke-width="1.5"></path><path d="M796.02 383.25L973.95 339.99" stroke="#132e65" stroke-width="1.5"></path><path d="M795.17 546.25L795.17 546.25" stroke="#132e65" stroke-width="1.5"></path><path d="M795.17 546.25L981.59 507.46" stroke="#132e65" stroke-width="1.5"></path><path d="M795.17 546.25L704.74 342.97" stroke="#132e65" stroke-width="1.5"></path><path d="M795.17 546.25L544.43 500.83" stroke="#132e65" stroke-width="1.5"></path><path d="M795.17 546.25L973.95 339.99" stroke="#132e65" stroke-width="1.5"></path><path d="M1003.64 -49.07L1003.64 -49.07" stroke="#132e65" stroke-width="1.5"></path><path d="M1003.64 -49.07L992.25 58.64" stroke="#132e65" stroke-width="1.5"></path><path d="M1003.64 -49.07L1106.03 -100.93" stroke="#132e65" stroke-width="1.5"></path><path d="M1003.64 -49.07L1103.38 53.01" stroke="#132e65" stroke-width="1.5"></path><path d="M1003.64 -49.07L1285.75 -92.78" stroke="#132e65" stroke-width="1.5"></path><path d="M1003.64 -49.07L1267.89 76.93" stroke="#132e65" stroke-width="1.5"></path><path d="M992.25 58.64L992.25 58.64" stroke="#132e65" stroke-width="1.5"></path><path d="M992.25 58.64L1103.38 53.01" stroke="#132e65" stroke-width="1.5"></path><path d="M992.25 58.64L975.62 245.68" stroke="#132e65" stroke-width="1.5"></path><path d="M992.25 58.64L1106.03 -100.93" stroke="#132e65" stroke-width="1.5"></path><path d="M992.25 58.64L1121.98 247.97" stroke="#132e65" stroke-width="1.5"></path><path d="M992.25 58.64L790.53 238" stroke="#132e65" stroke-width="1.5"></path><path d="M975.62 245.68L975.62 245.68" stroke="#132e65" stroke-width="1.5"></path><path d="M975.62 245.68L973.95 339.99" stroke="#132e65" stroke-width="1.5"></path><path d="M975.62 245.68L1121.98 247.97" stroke="#132e65" stroke-width="1.5"></path><path d="M975.62 245.68L790.53 238" stroke="#132e65" stroke-width="1.5"></path><path d="M975.62 245.68L796.02 383.25" stroke="#132e65" stroke-width="1.5"></path><path d="M975.62 245.68L1103.38 53.01" stroke="#132e65" stroke-width="1.5"></path><path d="M973.95 339.99L973.95 339.99" stroke="#132e65" stroke-width="1.5"></path><path d="M973.95 339.99L981.59 507.46" stroke="#132e65" stroke-width="1.5"></path><path d="M973.95 339.99L1121.98 247.97" stroke="#132e65" stroke-width="1.5"></path><path d="M981.59 507.46L981.59 507.46" stroke="#132e65" stroke-width="1.5"></path><path d="M981.59 507.46L1089.35 503" stroke="#132e65" stroke-width="1.5"></path><path d="M1106.03 -100.93L1106.03 -100.93" stroke="#132e65" stroke-width="1.5"></path><path d="M1106.03 -100.93L1103.38 53.01" stroke="#132e65" stroke-width="1.5"></path><path d="M1106.03 -100.93L1285.75 -92.78" stroke="#132e65" stroke-width="1.5"></path><path d="M1103.38 53.01L1103.38 53.01" stroke="#132e65" stroke-width="1.5"></path><path d="M1121.98 247.97L1121.98 247.97" stroke="#132e65" stroke-width="1.5"></path><path d="M1121.98 247.97L1269.68 194.39" stroke="#132e65" stroke-width="1.5"></path><path d="M1121.98 247.97L1153.2 412.42" stroke="#132e65" stroke-width="1.5"></path><path d="M1153.2 412.42L1153.2 412.42" stroke="#132e65" stroke-width="1.5"></path><path d="M1153.2 412.42L1089.35 503" stroke="#132e65" stroke-width="1.5"></path><path d="M1153.2 412.42L1241.03 504.71" stroke="#132e65" stroke-width="1.5"></path><path d="M1153.2 412.42L973.95 339.99" stroke="#132e65" stroke-width="1.5"></path><path d="M1153.2 412.42L981.59 507.46" stroke="#132e65" stroke-width="1.5"></path><path d="M1089.35 503L1089.35 503" stroke="#132e65" stroke-width="1.5"></path><path d="M1089.35 503L1241.03 504.71" stroke="#132e65" stroke-width="1.5"></path><path d="M1285.75 -92.78L1285.75 -92.78" stroke="#132e65" stroke-width="1.5"></path><path d="M1285.75 -92.78L1408.82 -51.24" stroke="#132e65" stroke-width="1.5"></path><path d="M1285.75 -92.78L1267.89 76.93" stroke="#132e65" stroke-width="1.5"></path><path d="M1267.89 76.93L1267.89 76.93" stroke="#132e65" stroke-width="1.5"></path><path d="M1267.89 76.93L1269.68 194.39" stroke="#132e65" stroke-width="1.5"></path><path d="M1267.89 76.93L1421.35 90.01" stroke="#132e65" stroke-width="1.5"></path><path d="M1267.89 76.93L1103.38 53.01" stroke="#132e65" stroke-width="1.5"></path><path d="M1269.68 194.39L1269.68 194.39" stroke="#132e65" stroke-width="1.5"></path><path d="M1269.68 194.39L1449.03 230.37" stroke="#132e65" stroke-width="1.5"></path><path d="M1269.68 194.39L1421.35 90.01" stroke="#132e65" stroke-width="1.5"></path><path d="M1269.68 194.39L1103.38 53.01" stroke="#132e65" stroke-width="1.5"></path><path d="M1241.03 504.71L1241.03 504.71" stroke="#132e65" stroke-width="1.5"></path><path d="M1408.82 -51.24L1408.82 -51.24" stroke="#132e65" stroke-width="1.5"></path><path d="M1408.82 -51.24L1421.35 90.01" stroke="#132e65" stroke-width="1.5"></path><path d="M1421.35 90.01L1421.35 90.01" stroke="#132e65" stroke-width="1.5"></path><path d="M1421.35 90.01L1449.03 230.37" stroke="#132e65" stroke-width="1.5"></path><path d="M1421.35 90.01L1599.05 86.15" stroke="#132e65" stroke-width="1.5"></path><path d="M1449.03 230.37L1449.03 230.37" stroke="#132e65" stroke-width="1.5"></path><path d="M1449.03 230.37L1421.14 360.48" stroke="#132e65" stroke-width="1.5"></path><path d="M1449.03 230.37L1579.54 371.57" stroke="#132e65" stroke-width="1.5"></path><path d="M1449.03 230.37L1599.05 86.15" stroke="#132e65" stroke-width="1.5"></path><path d="M1449.03 230.37L1267.89 76.93" stroke="#132e65" stroke-width="1.5"></path><path d="M1421.14 360.48L1421.14 360.48" stroke="#132e65" stroke-width="1.5"></path><path d="M1421.14 360.48L1579.54 371.57" stroke="#132e65" stroke-width="1.5"></path><path d="M1460.63 558.01L1460.63 558.01" stroke="#132e65" stroke-width="1.5"></path><path d="M1460.63 558.01L1421.14 360.48" stroke="#132e65" stroke-width="1.5"></path><path d="M1555.35 -58.41L1555.35 -58.41" stroke="#132e65" stroke-width="1.5"></path><path d="M1555.35 -58.41L1408.82 -51.24" stroke="#132e65" stroke-width="1.5"></path><path d="M1555.35 -58.41L1599.05 86.15" stroke="#132e65" stroke-width="1.5"></path><path d="M1555.35 -58.41L1421.35 90.01" stroke="#132e65" stroke-width="1.5"></path><path d="M1599.05 86.15L1599.05 86.15" stroke="#132e65" stroke-width="1.5"></path><path d="M1599.05 86.15L1713.08 94.69" stroke="#132e65" stroke-width="1.5"></path><path d="M1599.05 86.15L1731.05 220.65" stroke="#132e65" stroke-width="1.5"></path><path d="M1579.54 371.57L1579.54 371.57" stroke="#132e65" stroke-width="1.5"></path><path d="M1579.54 371.57L1762.11 403.45" stroke="#132e65" stroke-width="1.5"></path><path d="M1751.17 -107.22L1751.17 -107.22" stroke="#132e65" stroke-width="1.5"></path><path d="M1751.17 -107.22L1555.35 -58.41" stroke="#132e65" stroke-width="1.5"></path><path d="M1751.17 -107.22L1713.08 94.69" stroke="#132e65" stroke-width="1.5"></path><path d="M1751.17 -107.22L1599.05 86.15" stroke="#132e65" stroke-width="1.5"></path><path d="M1713.08 94.69L1713.08 94.69" stroke="#132e65" stroke-width="1.5"></path><path d="M1713.08 94.69L1731.05 220.65" stroke="#132e65" stroke-width="1.5"></path><path d="M1713.08 94.69L1555.35 -58.41" stroke="#132e65" stroke-width="1.5"></path><path d="M1731.05 220.65L1731.05 220.65" stroke="#132e65" stroke-width="1.5"></path><path d="M1731.05 220.65L1762.11 403.45" stroke="#132e65" stroke-width="1.5"></path><path d="M1731.05 220.65L1579.54 371.57" stroke="#132e65" stroke-width="1.5"></path><path d="M1731.05 220.65L1449.03 230.37" stroke="#132e65" stroke-width="1.5"></path><path d="M1762.11 403.45L1762.11 403.45" stroke="#132e65" stroke-width="1.5"></path><path d="M1762.11 403.45L1698.12 561.49" stroke="#132e65" stroke-width="1.5"></path><path d="M1698.12 561.49L1698.12 561.49" stroke="#132e65" stroke-width="1.5"></path><path d="M1698.12 561.49L1579.54 371.57" stroke="#132e65" stroke-width="1.5"></path><path d="M1698.12 561.49L1460.63 558.01" stroke="#132e65" stroke-width="1.5"></path><path d="M1698.12 561.49L1421.14 360.48" stroke="#132e65" stroke-width="1.5"></path><circle r="5" cx="-87.39" cy="406.25" fill="#132e65"></circle><circle r="5" cx="-45.1" cy="516.04" fill="#132e65"></circle><circle r="5" cx="59.3" cy="411.7" fill="#132e65"></circle><circle r="5" cx="62.65" cy="552.58" fill="#132e65"></circle><circle r="5" cx="231.79" cy="376.85" fill="#132e65"></circle><circle r="5" cx="239.71" cy="511.99" fill="#132e65"></circle><circle r="5" cx="369.92" cy="215.45" fill="#132e65"></circle><circle r="5" cx="366.62" cy="391.58" fill="#132e65"></circle><circle r="5" cx="371.74" cy="526.74" fill="#132e65"></circle><circle r="5" cx="504.9" cy="210.64" fill="#132e65"></circle><circle r="5" cx="521.27" cy="338.93" fill="#132e65"></circle><circle r="5" cx="544.43" cy="500.83" fill="#132e65"></circle><circle r="5" cx="648.37" cy="194.14" fill="#132e65"></circle><circle r="5" cx="704.74" cy="342.97" fill="#132e65"></circle><circle r="5" cx="653.02" cy="530.88" fill="#132e65"></circle><circle r="5" cx="790.53" cy="238" fill="#132e65"></circle><circle r="5" cx="796.02" cy="383.25" fill="#132e65"></circle><circle r="5" cx="795.17" cy="546.25" fill="#132e65"></circle><circle r="5" cx="1003.64" cy="-49.07" fill="#132e65"></circle><circle r="5" cx="992.25" cy="58.64" fill="#132e65"></circle><circle r="5" cx="975.62" cy="245.68" fill="#132e65"></circle><circle r="5" cx="973.95" cy="339.99" fill="#132e65"></circle><circle r="5" cx="981.59" cy="507.46" fill="#132e65"></circle><circle r="5" cx="1106.03" cy="-100.93" fill="#132e65"></circle><circle r="5" cx="1103.38" cy="53.01" fill="#132e65"></circle><circle r="5" cx="1121.98" cy="247.97" fill="#132e65"></circle><circle r="5" cx="1153.2" cy="412.42" fill="#132e65"></circle><circle r="5" cx="1089.35" cy="503" fill="#132e65"></circle><circle r="5" cx="1285.75" cy="-92.78" fill="#132e65"></circle><circle r="5" cx="1267.89" cy="76.93" fill="#132e65"></circle><circle r="5" cx="1269.68" cy="194.39" fill="#132e65"></circle><circle r="5" cx="1241.03" cy="504.71" fill="#132e65"></circle><circle r="5" cx="1408.82" cy="-51.24" fill="#132e65"></circle><circle r="5" cx="1421.35" cy="90.01" fill="#132e65"></circle><circle r="5" cx="1449.03" cy="230.37" fill="#132e65"></circle><circle r="5" cx="1421.14" cy="360.48" fill="#132e65"></circle><circle r="5" cx="1460.63" cy="558.01" fill="#132e65"></circle><circle r="5" cx="1555.35" cy="-58.41" fill="#132e65"></circle><circle r="5" cx="1599.05" cy="86.15" fill="#132e65"></circle><circle r="5" cx="1579.54" cy="371.57" fill="#132e65"></circle><circle r="5" cx="1751.17" cy="-107.22" fill="#132e65"></circle><circle r="5" cx="1713.08" cy="94.69" fill="#132e65"></circle><circle r="5" cx="1731.05" cy="220.65" fill="#132e65"></circle><circle r="5" cx="1762.11" cy="403.45" fill="#132e65"></circle><circle r="5" cx="1698.12" cy="561.49" fill="#132e65"></circle><path d="M702.33 366.15L702.33 366.15" stroke="hsl(228.5, 77.2%, 51.5%)" stroke-width="1.5"></path><path d="M702.33 366.15L539.1 389.77" stroke="hsl(228.5, 77.2%, 51.5%)" stroke-width="1.5"></path><path d="M702.33 366.15L704.46 537.17" stroke="hsl(228.5, 77.2%, 51.5%)" stroke-width="1.5"></path><path d="M702.33 366.15L797.93 521.99" stroke="hsl(228.5, 77.2%, 51.5%)" stroke-width="1.5"></path><path d="M704.46 537.17L704.46 537.17" stroke="hsl(228.5, 77.2%, 51.5%)" stroke-width="1.5"></path><path d="M704.46 537.17L797.93 521.99" stroke="hsl(228.5, 77.2%, 51.5%)" stroke-width="1.5"></path><path d="M1143.61 338.7L1143.61 338.7" stroke="hsl(228.5, 77.2%, 51.5%)" stroke-width="1.5"></path><path d="M1143.61 338.7L1242.23 357.21" stroke="hsl(228.5, 77.2%, 51.5%)" stroke-width="1.5"></path><path d="M1143.61 338.7L1162.1 203.71" stroke="hsl(228.5, 77.2%, 51.5%)" stroke-width="1.5"></path><path d="M1143.61 338.7L1154.94 498.66" stroke="hsl(228.5, 77.2%, 51.5%)" stroke-width="1.5"></path><path d="M1282.03 549.18L1282.03 549.18" stroke="hsl(228.5, 77.2%, 51.5%)" stroke-width="1.5"></path><path d="M1282.03 549.18L1154.94 498.66" stroke="hsl(228.5, 77.2%, 51.5%)" stroke-width="1.5"></path><path d="M1282.03 549.18L1444.54 490.53" stroke="hsl(228.5, 77.2%, 51.5%)" stroke-width="1.5"></path><path d="M1282.03 549.18L1242.23 357.21" stroke="hsl(228.5, 77.2%, 51.5%)" stroke-width="1.5"></path><path d="M1282.03 549.18L1402.84 351.22" stroke="hsl(228.5, 77.2%, 51.5%)" stroke-width="1.5"></path><path d="M1282.03 549.18L1143.61 338.7" stroke="hsl(228.5, 77.2%, 51.5%)" stroke-width="1.5"></path><path d="M1425.49 -91.5L1425.49 -91.5" stroke="hsl(228.5, 77.2%, 51.5%)" stroke-width="1.5"></path><path d="M1425.49 -91.5L1432.72 92.22" stroke="hsl(228.5, 77.2%, 51.5%)" stroke-width="1.5"></path><path d="M1425.49 -91.5L1566.23 63.5" stroke="hsl(228.5, 77.2%, 51.5%)" stroke-width="1.5"></path><path d="M1425.49 -91.5L1297.71 107.06" stroke="hsl(228.5, 77.2%, 51.5%)" stroke-width="1.5"></path><path d="M1425.49 -91.5L1703.73 -53.15" stroke="hsl(228.5, 77.2%, 51.5%)" stroke-width="1.5"></path><path d="M1425.49 -91.5L1693.61 85.09" stroke="hsl(228.5, 77.2%, 51.5%)" stroke-width="1.5"></path><path d="M1402.84 351.22L1402.84 351.22" stroke="hsl(228.5, 77.2%, 51.5%)" stroke-width="1.5"></path><path d="M1402.84 351.22L1419.05 241.82" stroke="hsl(228.5, 77.2%, 51.5%)" stroke-width="1.5"></path><path d="M1402.84 351.22L1444.54 490.53" stroke="hsl(228.5, 77.2%, 51.5%)" stroke-width="1.5"></path><path d="M1402.84 351.22L1242.23 357.21" stroke="hsl(228.5, 77.2%, 51.5%)" stroke-width="1.5"></path><path d="M1402.84 351.22L1272.75 241.28" stroke="hsl(228.5, 77.2%, 51.5%)" stroke-width="1.5"></path><path d="M1402.84 351.22L1574.64 370.48" stroke="hsl(228.5, 77.2%, 51.5%)" stroke-width="1.5"></path><path d="M1703.73 -53.15L1703.73 -53.15" stroke="hsl(228.5, 77.2%, 51.5%)" stroke-width="1.5"></path><path d="M1703.73 -53.15L1693.61 85.09" stroke="hsl(228.5, 77.2%, 51.5%)" stroke-width="1.5"></path><path d="M1703.73 -53.15L1566.23 63.5" stroke="hsl(228.5, 77.2%, 51.5%)" stroke-width="1.5"></path><path d="M-99.62 374.19L-99.62 374.19" stroke="hsl(228.5, 77.2%, 51.5%)" stroke-width="1.5"></path><path d="M-99.62 374.19L-89.15 538.81" stroke="hsl(228.5, 77.2%, 51.5%)" stroke-width="1.5"></path><path d="M-99.62 374.19L94.2 392.12" stroke="hsl(228.5, 77.2%, 51.5%)" stroke-width="1.5"></path><path d="M-99.62 374.19L77.96 533.86" stroke="hsl(228.5, 77.2%, 51.5%)" stroke-width="1.5"></path><path d="M-99.62 374.19L259.87 356.98" stroke="hsl(228.5, 77.2%, 51.5%)" stroke-width="1.5"></path><path d="M-89.15 538.81L-89.15 538.81" stroke="hsl(228.5, 77.2%, 51.5%)" stroke-width="1.5"></path><path d="M-89.15 538.81L77.96 533.86" stroke="hsl(228.5, 77.2%, 51.5%)" stroke-width="1.5"></path><path d="M-89.15 538.81L94.2 392.12" stroke="hsl(228.5, 77.2%, 51.5%)" stroke-width="1.5"></path><path d="M-89.15 538.81L239.49 536.21" stroke="hsl(228.5, 77.2%, 51.5%)" stroke-width="1.5"></path><path d="M-89.15 538.81L259.87 356.98" stroke="hsl(228.5, 77.2%, 51.5%)" stroke-width="1.5"></path><path d="M-89.15 538.81L361.61 549.69" stroke="hsl(228.5, 77.2%, 51.5%)" stroke-width="1.5"></path><path d="M94.2 392.12L94.2 392.12" stroke="hsl(228.5, 77.2%, 51.5%)" stroke-width="1.5"></path><path d="M94.2 392.12L77.96 533.86" stroke="hsl(228.5, 77.2%, 51.5%)" stroke-width="1.5"></path><path d="M94.2 392.12L259.87 356.98" stroke="hsl(228.5, 77.2%, 51.5%)" stroke-width="1.5"></path><path d="M77.96 533.86L77.96 533.86" stroke="hsl(228.5, 77.2%, 51.5%)" stroke-width="1.5"></path><path d="M77.96 533.86L239.49 536.21" stroke="hsl(228.5, 77.2%, 51.5%)" stroke-width="1.5"></path><path d="M77.96 533.86L259.87 356.98" stroke="hsl(228.5, 77.2%, 51.5%)" stroke-width="1.5"></path><path d="M259.87 356.98L259.87 356.98" stroke="hsl(228.5, 77.2%, 51.5%)" stroke-width="1.5"></path><path d="M259.87 356.98L407.37 369.57" stroke="hsl(228.5, 77.2%, 51.5%)" stroke-width="1.5"></path><path d="M259.87 356.98L239.49 536.21" stroke="hsl(228.5, 77.2%, 51.5%)" stroke-width="1.5"></path><path d="M259.87 356.98L361.61 549.69" stroke="hsl(228.5, 77.2%, 51.5%)" stroke-width="1.5"></path><path d="M239.49 536.21L239.49 536.21" stroke="hsl(228.5, 77.2%, 51.5%)" stroke-width="1.5"></path><path d="M239.49 536.21L361.61 549.69" stroke="hsl(228.5, 77.2%, 51.5%)" stroke-width="1.5"></path><path d="M239.49 536.21L94.2 392.12" stroke="hsl(228.5, 77.2%, 51.5%)" stroke-width="1.5"></path><path d="M407.37 369.57L407.37 369.57" stroke="hsl(228.5, 77.2%, 51.5%)" stroke-width="1.5"></path><path d="M407.37 369.57L539.1 389.77" stroke="hsl(228.5, 77.2%, 51.5%)" stroke-width="1.5"></path><path d="M407.37 369.57L361.61 549.69" stroke="hsl(228.5, 77.2%, 51.5%)" stroke-width="1.5"></path><path d="M407.37 369.57L501.82 556.56" stroke="hsl(228.5, 77.2%, 51.5%)" stroke-width="1.5"></path><path d="M361.61 549.69L361.61 549.69" stroke="hsl(228.5, 77.2%, 51.5%)" stroke-width="1.5"></path><path d="M361.61 549.69L501.82 556.56" stroke="hsl(228.5, 77.2%, 51.5%)" stroke-width="1.5"></path><path d="M539.1 389.77L539.1 389.77" stroke="hsl(228.5, 77.2%, 51.5%)" stroke-width="1.5"></path><path d="M539.1 389.77L501.82 556.56" stroke="hsl(228.5, 77.2%, 51.5%)" stroke-width="1.5"></path><path d="M539.1 389.77L704.46 537.17" stroke="hsl(228.5, 77.2%, 51.5%)" stroke-width="1.5"></path><path d="M501.82 556.56L501.82 556.56" stroke="hsl(228.5, 77.2%, 51.5%)" stroke-width="1.5"></path><path d="M501.82 556.56L704.46 537.17" stroke="hsl(228.5, 77.2%, 51.5%)" stroke-width="1.5"></path><path d="M797.93 521.99L797.93 521.99" stroke="hsl(228.5, 77.2%, 51.5%)" stroke-width="1.5"></path><path d="M797.93 521.99L945.43 544.99" stroke="hsl(228.5, 77.2%, 51.5%)" stroke-width="1.5"></path><path d="M797.93 521.99L967.5 351.5" stroke="hsl(228.5, 77.2%, 51.5%)" stroke-width="1.5"></path><path d="M797.93 521.99L539.1 389.77" stroke="hsl(228.5, 77.2%, 51.5%)" stroke-width="1.5"></path><path d="M797.93 521.99L501.82 556.56" stroke="hsl(228.5, 77.2%, 51.5%)" stroke-width="1.5"></path><path d="M972.08 221.49L972.08 221.49" stroke="hsl(228.5, 77.2%, 51.5%)" stroke-width="1.5"></path><path d="M972.08 221.49L967.5 351.5" stroke="hsl(228.5, 77.2%, 51.5%)" stroke-width="1.5"></path><path d="M972.08 221.49L1162.1 203.71" stroke="hsl(228.5, 77.2%, 51.5%)" stroke-width="1.5"></path><path d="M972.08 221.49L1143.61 338.7" stroke="hsl(228.5, 77.2%, 51.5%)" stroke-width="1.5"></path><path d="M972.08 221.49L1272.75 241.28" stroke="hsl(228.5, 77.2%, 51.5%)" stroke-width="1.5"></path><path d="M972.08 221.49L1242.23 357.21" stroke="hsl(228.5, 77.2%, 51.5%)" stroke-width="1.5"></path><path d="M967.5 351.5L967.5 351.5" stroke="hsl(228.5, 77.2%, 51.5%)" stroke-width="1.5"></path><path d="M967.5 351.5L1143.61 338.7" stroke="hsl(228.5, 77.2%, 51.5%)" stroke-width="1.5"></path><path d="M967.5 351.5L945.43 544.99" stroke="hsl(228.5, 77.2%, 51.5%)" stroke-width="1.5"></path><path d="M967.5 351.5L1154.94 498.66" stroke="hsl(228.5, 77.2%, 51.5%)" stroke-width="1.5"></path><path d="M945.43 544.99L945.43 544.99" stroke="hsl(228.5, 77.2%, 51.5%)" stroke-width="1.5"></path><path d="M1162.1 203.71L1162.1 203.71" stroke="hsl(228.5, 77.2%, 51.5%)" stroke-width="1.5"></path><path d="M1162.1 203.71L1272.75 241.28" stroke="hsl(228.5, 77.2%, 51.5%)" stroke-width="1.5"></path><path d="M1162.1 203.71L1297.71 107.06" stroke="hsl(228.5, 77.2%, 51.5%)" stroke-width="1.5"></path><path d="M1162.1 203.71L1242.23 357.21" stroke="hsl(228.5, 77.2%, 51.5%)" stroke-width="1.5"></path><path d="M1154.94 498.66L1154.94 498.66" stroke="hsl(228.5, 77.2%, 51.5%)" stroke-width="1.5"></path><path d="M1297.71 107.06L1297.71 107.06" stroke="hsl(228.5, 77.2%, 51.5%)" stroke-width="1.5"></path><path d="M1297.71 107.06L1432.72 92.22" stroke="hsl(228.5, 77.2%, 51.5%)" stroke-width="1.5"></path><path d="M1297.71 107.06L1272.75 241.28" stroke="hsl(228.5, 77.2%, 51.5%)" stroke-width="1.5"></path><path d="M1297.71 107.06L1419.05 241.82" stroke="hsl(228.5, 77.2%, 51.5%)" stroke-width="1.5"></path><path d="M1297.71 107.06L1242.23 357.21" stroke="hsl(228.5, 77.2%, 51.5%)" stroke-width="1.5"></path><path d="M1272.75 241.28L1272.75 241.28" stroke="hsl(228.5, 77.2%, 51.5%)" stroke-width="1.5"></path><path d="M1242.23 357.21L1242.23 357.21" stroke="hsl(228.5, 77.2%, 51.5%)" stroke-width="1.5"></path><path d="M1242.23 357.21L1272.75 241.28" stroke="hsl(228.5, 77.2%, 51.5%)" stroke-width="1.5"></path><path d="M1432.72 92.22L1432.72 92.22" stroke="hsl(228.5, 77.2%, 51.5%)" stroke-width="1.5"></path><path d="M1432.72 92.22L1566.23 63.5" stroke="hsl(228.5, 77.2%, 51.5%)" stroke-width="1.5"></path><path d="M1432.72 92.22L1419.05 241.82" stroke="hsl(228.5, 77.2%, 51.5%)" stroke-width="1.5"></path><path d="M1419.05 241.82L1419.05 241.82" stroke="hsl(228.5, 77.2%, 51.5%)" stroke-width="1.5"></path><path d="M1419.05 241.82L1272.75 241.28" stroke="hsl(228.5, 77.2%, 51.5%)" stroke-width="1.5"></path><path d="M1419.05 241.82L1608.78 260.91" stroke="hsl(228.5, 77.2%, 51.5%)" stroke-width="1.5"></path><path d="M1444.54 490.53L1444.54 490.53" stroke="hsl(228.5, 77.2%, 51.5%)" stroke-width="1.5"></path><path d="M1444.54 490.53L1590.36 550" stroke="hsl(228.5, 77.2%, 51.5%)" stroke-width="1.5"></path><path d="M1566.23 63.5L1566.23 63.5" stroke="hsl(228.5, 77.2%, 51.5%)" stroke-width="1.5"></path><path d="M1566.23 63.5L1693.61 85.09" stroke="hsl(228.5, 77.2%, 51.5%)" stroke-width="1.5"></path><path d="M1566.23 63.5L1608.78 260.91" stroke="hsl(228.5, 77.2%, 51.5%)" stroke-width="1.5"></path><path d="M1608.78 260.91L1608.78 260.91" stroke="hsl(228.5, 77.2%, 51.5%)" stroke-width="1.5"></path><path d="M1608.78 260.91L1718.52 247.14" stroke="hsl(228.5, 77.2%, 51.5%)" stroke-width="1.5"></path><path d="M1608.78 260.91L1574.64 370.48" stroke="hsl(228.5, 77.2%, 51.5%)" stroke-width="1.5"></path><path d="M1608.78 260.91L1704.51 374.29" stroke="hsl(228.5, 77.2%, 51.5%)" stroke-width="1.5"></path><path d="M1574.64 370.48L1574.64 370.48" stroke="hsl(228.5, 77.2%, 51.5%)" stroke-width="1.5"></path><path d="M1574.64 370.48L1704.51 374.29" stroke="hsl(228.5, 77.2%, 51.5%)" stroke-width="1.5"></path><path d="M1574.64 370.48L1444.54 490.53" stroke="hsl(228.5, 77.2%, 51.5%)" stroke-width="1.5"></path><path d="M1574.64 370.48L1590.36 550" stroke="hsl(228.5, 77.2%, 51.5%)" stroke-width="1.5"></path><path d="M1574.64 370.48L1718.52 247.14" stroke="hsl(228.5, 77.2%, 51.5%)" stroke-width="1.5"></path><path d="M1590.36 550L1590.36 550" stroke="hsl(228.5, 77.2%, 51.5%)" stroke-width="1.5"></path><path d="M1590.36 550L1730.23 544.8" stroke="hsl(228.5, 77.2%, 51.5%)" stroke-width="1.5"></path><path d="M1693.61 85.09L1693.61 85.09" stroke="hsl(228.5, 77.2%, 51.5%)" stroke-width="1.5"></path><path d="M1718.52 247.14L1718.52 247.14" stroke="hsl(228.5, 77.2%, 51.5%)" stroke-width="1.5"></path><path d="M1718.52 247.14L1704.51 374.29" stroke="hsl(228.5, 77.2%, 51.5%)" stroke-width="1.5"></path><path d="M1718.52 247.14L1693.61 85.09" stroke="hsl(228.5, 77.2%, 51.5%)" stroke-width="1.5"></path><path d="M1704.51 374.29L1704.51 374.29" stroke="hsl(228.5, 77.2%, 51.5%)" stroke-width="1.5"></path><path d="M1730.23 544.8L1730.23 544.8" stroke="hsl(228.5, 77.2%, 51.5%)" stroke-width="1.5"></path><path d="M1730.23 544.8L1704.51 374.29" stroke="hsl(228.5, 77.2%, 51.5%)" stroke-width="1.5"></path><path d="M1730.23 544.8L1574.64 370.48" stroke="hsl(228.5, 77.2%, 51.5%)" stroke-width="1.5"></path><path d="M1730.23 544.8L1444.54 490.53" stroke="hsl(228.5, 77.2%, 51.5%)" stroke-width="1.5"></path><path d="M1730.23 544.8L1718.52 247.14" stroke="hsl(228.5, 77.2%, 51.5%)" stroke-width="1.5"></path><circle r="25" cx="702.33" cy="366.15" fill="url(#SvgjsRadialGradient1027)"></circle><circle r="25" cx="704.46" cy="537.17" fill="url(#SvgjsRadialGradient1027)"></circle><circle r="25" cx="1143.61" cy="338.7" fill="url(#SvgjsRadialGradient1027)"></circle><circle r="25" cx="1282.03" cy="549.18" fill="url(#SvgjsRadialGradient1027)"></circle><circle r="25" cx="1425.49" cy="-91.5" fill="url(#SvgjsRadialGradient1027)"></circle><circle r="25" cx="1402.84" cy="351.22" fill="url(#SvgjsRadialGradient1027)"></circle><circle r="25" cx="1703.73" cy="-53.15" fill="url(#SvgjsRadialGradient1027)"></circle><circle r="5" cx="-99.62" cy="374.19" fill="#8b9ad9"></circle><circle r="5" cx="-89.15" cy="538.81" fill="#8b9ad9"></circle><circle r="5" cx="94.2" cy="392.12" fill="#8b9ad9"></circle><circle r="5" cx="77.96" cy="533.86" fill="#8b9ad9"></circle><circle r="5" cx="259.87" cy="356.98" fill="#8b9ad9"></circle><circle r="5" cx="239.49" cy="536.21" fill="#8b9ad9"></circle><circle r="5" cx="407.37" cy="369.57" fill="#8b9ad9"></circle><circle r="5" cx="361.61" cy="549.69" fill="#8b9ad9"></circle><circle r="5" cx="539.1" cy="389.77" fill="#8b9ad9"></circle><circle r="5" cx="501.82" cy="556.56" fill="#8b9ad9"></circle><circle r="5" cx="797.93" cy="521.99" fill="#8b9ad9"></circle><circle r="5" cx="972.08" cy="221.49" fill="#8b9ad9"></circle><circle r="5" cx="967.5" cy="351.5" fill="#8b9ad9"></circle><circle r="5" cx="945.43" cy="544.99" fill="#8b9ad9"></circle><circle r="5" cx="1162.1" cy="203.71" fill="#8b9ad9"></circle><circle r="5" cx="1154.94" cy="498.66" fill="#8b9ad9"></circle><circle r="5" cx="1297.71" cy="107.06" fill="#8b9ad9"></circle><circle r="5" cx="1272.75" cy="241.28" fill="#8b9ad9"></circle><circle r="5" cx="1242.23" cy="357.21" fill="#8b9ad9"></circle><circle r="5" cx="1432.72" cy="92.22" fill="#8b9ad9"></circle><circle r="5" cx="1419.05" cy="241.82" fill="#8b9ad9"></circle><circle r="5" cx="1444.54" cy="490.53" fill="#8b9ad9"></circle><circle r="5" cx="1566.23" cy="63.5" fill="#8b9ad9"></circle><circle r="5" cx="1608.78" cy="260.91" fill="#8b9ad9"></circle><circle r="5" cx="1574.64" cy="370.48" fill="#8b9ad9"></circle><circle r="5" cx="1590.36" cy="550" fill="#8b9ad9"></circle><circle r="5" cx="1693.61" cy="85.09" fill="#8b9ad9"></circle><circle r="5" cx="1718.52" cy="247.14" fill="#8b9ad9"></circle><circle r="5" cx="1704.51" cy="374.29" fill="#8b9ad9"></circle><circle r="5" cx="1730.23" cy="544.8" fill="#8b9ad9"></circle></g><defs><mask id="SvgjsMask1026"><rect width="1620" height="365" fill="#ffffff"></rect></mask><radialGradient id="SvgjsRadialGradient1027"><stop stop-color="#ffffff" offset="0.1"></stop><stop stop-color="#1735b3" offset="0.2"></stop><stop stop-color="rgba(23, 53, 179, 0)" offset="1"></stop></radialGradient></defs></svg>